<svg width="32" height="31" viewBox="0 0 32 31" fill="none" xmlns="http://www.w3.org/2000/svg">
<path d="M31.2749 3.84259C27.4022 3.84259 21.9311 4.16662 19.1352 6.96105C17.9247 8.17155 17.3202 10.1449 17.4771 12.3785C17.4975 12.6735 17.6937 12.9248 17.9756 13.0179C18.256 13.1094 18.5641 13.0237 18.7559 12.7985C20.3108 10.9689 22.2435 9.50269 24.5046 8.44041C24.6964 8.34886 24.9231 8.34157 25.1295 8.41425C25.3111 8.47965 25.4535 8.60314 25.5276 8.76158C25.6816 9.08711 25.6322 9.51577 25.1207 9.75697C25.0917 9.77148 25.0655 9.79042 25.0365 9.8035C25.0263 9.80786 25.0147 9.80643 25.006 9.81079C19.4346 12.4294 16.6954 16.9981 15.4514 21.6962C14.5446 15.8138 12.6294 12.3509 10.8202 10.2249C9.51095 8.52767 8.22341 7.62812 7.47943 7.11956C7.34136 7.02508 6.92435 6.74028 6.7514 6.56733C6.46803 6.28397 6.46803 5.82329 6.7514 5.53993C7.03477 5.25799 7.49687 5.25799 7.81218 5.57187C7.88923 5.64019 8.01272 5.72738 8.16966 5.83201L8.29902 5.9192C9.35108 6.63995 11.31 7.97831 13.0479 10.8599C13.2034 11.1171 13.5042 11.2552 13.7963 11.2C14.0928 11.1476 14.3252 10.9195 14.3834 10.6245C14.7627 8.68747 14.5927 5.81308 12.8649 4.08529C10.069 1.29229 4.59789 0.968262 0.726671 0.968262C0.32553 0.968194 0 1.29372 0 1.6948C0 5.56745 0.324032 11.0386 3.11846 13.8345C4.28387 14.9999 6.08147 15.5231 7.86736 15.5231C9.32486 15.5231 10.7533 15.1583 11.8476 14.5262C13.3399 17.6185 14.5316 22.2381 14.5316 29.3048C14.5316 29.7059 14.8571 30.0314 15.2582 30.0314C15.6592 30.0314 15.9848 29.7059 15.9848 29.3048C15.9848 25.3624 16.6605 20.6309 19.173 16.7364C20.18 17.7202 21.9137 18.3437 23.8347 18.4018C23.9306 18.4047 24.0251 18.4061 24.1195 18.4061C26.0711 18.4061 27.796 17.7944 28.8815 16.7073C31.6773 13.9115 31.9999 8.44034 31.9999 4.56763C32.0015 4.16662 31.6774 3.84259 31.2749 3.84259Z" fill="#00B307"/>
</svg>
